<?xml version="1.0"?>
<svg width="170" height="96" xmlns="http://www.w3.org/2000/svg" xmlns:svg="http://www.w3.org/2000/svg">
 <defs>
  <filter color-interpolation-filters="sRGB" filterUnits="userSpaceOnUse" height="176" id="filter0_d_8_242" width="250" x="0" y="0">
   <feFlood flood-opacity="0" result="BackgroundImageFix"/>
   <feColorMatrix in="SourceAlpha" result="hardAlpha" type="matrix" values="0 0 0 0 0 0 0 0 0 0 0 0 0 0 0 0 0 0 127 0"/>
   <feOffset dy="30"/>
   <feGaussianBlur stdDeviation="20"/>
   <feColorMatrix type="matrix" values="0 0 0 0 0.831373 0 0 0 0 0.85098 0 0 0 0 0.909804 0 0 0 0.2 0"/>
   <feBlend in2="BackgroundImageFix"/>
   <feBlend in="SourceGraphic" in2="effect1_dropShadow_8_242"/>
  </filter>
 </defs>
 <g class="layer">
  <title>Layer 1</title>
  <g id="svg_8">
   <g filter="url(#filter0_d_8_242)" id="svg_1">
    <rect fill="white" height="96" id="svg_2" rx="16" width="170" x="0" y="0"/>
   </g>
   <path clip-rule="evenodd" d="m101.2,41.31l-2,-3.38l-3.55,1.69l-2,-3.39l-3.55,1.7l-1.99,-3.4l-3.55,1.7l-2,-3.39l-3.55,1.7l-1.99,-3.4l-3.56,1.7l-7.53,24.52l9.15,2.8c0.34,-1.11 1.07,-2.05 2.05,-2.67c0.98,-0.61 2.15,-0.85 3.3,-0.68c1.14,0.17 2.19,0.74 2.95,1.62c0.76,0.87 1.17,1.99 1.18,3.15l0,0.1c0.02,0.44 -0.03,0.88 -0.16,1.32l9.3,2.85l7.5,-24.54z" fill="#D61920" fill-rule="evenodd" id="svg_3"/>
   <path clip-rule="evenodd" d="m73.78,55.34c-0.23,-0.04 -0.44,-0.16 -0.59,-0.34c-0.15,-0.18 -0.23,-0.41 -0.23,-0.64l0,-12c0,-0.13 0.02,-0.26 0.07,-0.38c0.05,-0.13 0.13,-0.24 0.22,-0.33c0.09,-0.09 0.2,-0.17 0.33,-0.22c0.12,-0.05 0.25,-0.07 0.38,-0.07l8.67,0c0.51,0 1.02,0.1 1.49,0.29c0.47,0.2 0.9,0.48 1.26,0.84c0.37,0.36 0.65,0.79 0.85,1.26c0.2,0.47 0.3,0.98 0.3,1.49l0,9.12c0,0.15 -0.03,0.29 -0.1,0.43c-0.06,0.13 -0.15,0.25 -0.26,0.34c-0.12,0.09 -0.25,0.16 -0.39,0.2c-0.15,0.03 -0.3,0.04 -0.44,0.01c-0.23,-0.04 -0.44,-0.16 -0.59,-0.34c-0.14,-0.18 -0.22,-0.41 -0.22,-0.64l0,-9.11c0,-0.5 -0.2,-0.99 -0.56,-1.34c-0.35,-0.36 -0.84,-0.56 -1.34,-0.56l-1.89,0l0,11c0,0.13 -0.02,0.27 -0.08,0.39c-0.05,0.12 -0.12,0.24 -0.22,0.33c-0.11,0.11 -0.25,0.2 -0.41,0.24c-0.15,0.05 -0.31,0.06 -0.47,0.03c-0.23,-0.04 -0.44,-0.16 -0.59,-0.34c-0.15,-0.18 -0.23,-0.41 -0.23,-0.64l0,-11.01l-3.78,0l0,11c0,0.15 -0.03,0.29 -0.09,0.43c-0.06,0.13 -0.15,0.25 -0.27,0.34c-0.11,0.1 -0.24,0.17 -0.38,0.2c-0.15,0.04 -0.3,0.05 -0.44,0.02zm14.42,5.23c-0.23,-0.04 -0.44,-0.16 -0.59,-0.34c-0.16,-0.18 -0.24,-0.41 -0.23,-0.65c0,-0.26 0.1,-0.51 0.29,-0.7c0.19,-0.19 0.44,-0.3 0.7,-0.3c0.85,0 1.58,-0.54 1.82,-1.35l1.03,-3.43l-3.37,-11.27c-0.04,-0.13 -0.05,-0.26 -0.04,-0.39c0.01,-0.13 0.05,-0.26 0.11,-0.38c0.06,-0.11 0.14,-0.22 0.24,-0.3c0.11,-0.09 0.22,-0.15 0.35,-0.19c0.25,-0.07 0.52,-0.04 0.75,0.08c0.23,0.13 0.41,0.33 0.49,0.58l2.5,8.4l2.54,-8.4c0.12,-0.46 0.63,-0.77 1.15,-0.67l0.07,0.01c0.54,0.17 0.84,0.74 0.68,1.27l-3.47,11.56l-1.1,3.7c-0.25,0.8 -0.74,1.5 -1.4,2c-0.68,0.51 -1.5,0.78 -2.34,0.78c-0.06,0 -0.12,0 -0.18,-0.01z" fill="#FEFEFE" fill-rule="evenodd" id="svg_4"/>
   <path clip-rule="evenodd" d="m27.08,53.15l1.96,0c0.52,0 1.02,-0.21 1.39,-0.58c0.37,-0.37 0.58,-0.87 0.58,-1.39l0,-5.77c0,-0.26 -0.05,-0.52 -0.15,-0.75c-0.09,-0.24 -0.24,-0.46 -0.42,-0.65c-0.18,-0.18 -0.4,-0.33 -0.64,-0.43c-0.24,-0.1 -0.49,-0.15 -0.75,-0.15l-1.97,0l0,9.7l0,0.02zm-1.23,2.06c-0.24,-0.04 -0.46,-0.17 -0.61,-0.35c-0.16,-0.19 -0.24,-0.43 -0.24,-0.67l0,-17.92c0,-0.14 0.02,-0.27 0.08,-0.4c0.05,-0.13 0.12,-0.24 0.22,-0.34c0.12,-0.12 0.26,-0.21 0.42,-0.26c0.16,-0.06 0.33,-0.07 0.5,-0.04c0.5,0.1 0.86,0.52 0.86,1.03l0,5.1l1.96,0c0.53,0 1.06,0.1 1.55,0.3c0.49,0.21 0.94,0.5 1.31,0.88c0.38,0.37 0.68,0.82 0.88,1.31c0.21,0.49 0.31,1.02 0.31,1.55l0,5.77c0,1.07 -0.43,2.1 -1.19,2.85c-0.75,0.76 -1.78,1.19 -2.85,1.19l-3.01,0c-0.07,0 -0.13,0 -0.2,-0.01l0.01,0.01z" fill="#333545" fill-rule="evenodd" id="svg_5"/>
   <path clip-rule="evenodd" d="m40.14,43.35c-0.11,-0.02 -0.23,-0.03 -0.34,-0.03c-0.26,0 -0.52,0.05 -0.76,0.14c-0.24,0.1 -0.46,0.25 -0.64,0.43c-0.18,0.18 -0.33,0.4 -0.43,0.64c-0.09,0.24 -0.14,0.5 -0.14,0.76l0,6.01c0,0.26 0.05,0.52 0.15,0.76c0.1,0.24 0.24,0.45 0.42,0.64c0.19,0.18 0.4,0.32 0.64,0.42c0.24,0.1 0.5,0.15 0.76,0.15c0.52,0 1.02,-0.21 1.39,-0.58c0.37,-0.37 0.58,-0.87 0.58,-1.39l0,-6c0,-0.97 -0.69,-1.78 -1.63,-1.95zm-1.05,11.95c-0.94,-0.16 -1.79,-0.66 -2.4,-1.39c-0.61,-0.73 -0.94,-1.65 -0.94,-2.6l0,-6.01c0,-0.53 0.1,-1.06 0.31,-1.55c0.2,-0.49 0.5,-0.94 0.88,-1.31c0.38,-0.38 0.82,-0.67 1.31,-0.88c0.49,-0.2 1.02,-0.3 1.55,-0.3c1.07,0 2.1,0.43 2.86,1.18c0.75,0.76 1.18,1.79 1.18,2.86l0,6.01c0,1.08 -0.42,2.1 -1.19,2.87c-0.37,0.37 -0.82,0.67 -1.31,0.87c-0.49,0.21 -1.01,0.31 -1.54,0.31c-0.24,0 -0.48,-0.02 -0.71,-0.06zm11.8,-11.94c-0.11,-0.02 -0.23,-0.03 -0.34,-0.03c-0.26,0 -0.52,0.05 -0.76,0.14c-0.24,0.1 -0.46,0.25 -0.64,0.43c-0.18,0.18 -0.33,0.4 -0.43,0.64c-0.09,0.24 -0.14,0.5 -0.14,0.76l0,6.01c0,0.26 0.05,0.52 0.15,0.76c0.1,0.23 0.24,0.45 0.42,0.64c0.19,0.18 0.4,0.32 0.64,0.42c0.24,0.1 0.5,0.15 0.76,0.15c0.26,0 0.52,-0.05 0.76,-0.15c0.24,-0.1 0.45,-0.24 0.64,-0.42c0.18,-0.19 0.32,-0.41 0.42,-0.64c0.1,-0.24 0.15,-0.5 0.15,-0.76l0,-6.01c0,-0.96 -0.69,-1.77 -1.63,-1.94zm-1.05,11.94c-0.94,-0.17 -1.78,-0.66 -2.39,-1.39c-0.61,-0.73 -0.94,-1.65 -0.94,-2.6l0,-6.01c0,-0.59 0.13,-1.17 0.38,-1.71c0.25,-0.53 0.61,-1 1.07,-1.38c0.45,-0.38 0.98,-0.66 1.54,-0.81c0.57,-0.15 1.17,-0.18 1.75,-0.08c0.94,0.16 1.79,0.65 2.4,1.38c0.61,0.73 0.95,1.65 0.95,2.6l0,6.01c0,0.53 -0.1,1.06 -0.31,1.56c-0.21,0.49 -0.51,0.94 -0.89,1.31c-0.37,0.37 -0.82,0.67 -1.31,0.87c-0.49,0.21 -1.01,0.31 -1.54,0.31c-0.24,0 -0.48,-0.02 -0.71,-0.06zm8.27,0.04c-0.24,-0.04 -0.46,-0.17 -0.61,-0.35c-0.16,-0.19 -0.24,-0.43 -0.24,-0.67l0,-18.05c0,-0.28 0.1,-0.55 0.3,-0.74c0.12,-0.12 0.26,-0.2 0.42,-0.25c0.16,-0.05 0.33,-0.06 0.49,-0.03c0.5,0.08 0.87,0.51 0.87,1.02l0,10.68l4.78,-5.36c0.24,-0.26 0.6,-0.38 0.96,-0.32c0.18,0.03 0.35,0.11 0.49,0.23c0.14,0.12 0.25,0.27 0.31,0.44c0.06,0.18 0.08,0.36 0.04,0.54c-0.03,0.18 -0.12,0.35 -0.24,0.49l-3.61,4.03l3.73,6.83c0.07,0.12 0.11,0.24 0.13,0.37c0.01,0.14 0.01,0.27 -0.03,0.4c-0.04,0.13 -0.1,0.26 -0.19,0.36c-0.09,0.11 -0.2,0.2 -0.32,0.26c-0.21,0.12 -0.46,0.16 -0.7,0.12c-0.15,-0.03 -0.29,-0.08 -0.42,-0.17c-0.12,-0.09 -0.22,-0.2 -0.3,-0.33l-3.36,-6.18l-1.28,1.41l0,4.25c0,0.28 -0.11,0.54 -0.3,0.74c-0.2,0.19 -0.46,0.3 -0.74,0.3c-0.07,0 -0.13,0 -0.2,-0.02l0.02,0zm45.81,-0.01c-0.56,-0.09 -1.1,-0.31 -1.56,-0.64c-0.47,-0.33 -0.86,-0.75 -1.14,-1.25c-0.14,-0.24 -0.17,-0.53 -0.1,-0.8c0.08,-0.26 0.25,-0.48 0.48,-0.62c0.21,-0.12 0.46,-0.16 0.7,-0.11c0.3,0.05 0.57,0.23 0.72,0.5c0.27,0.46 0.7,0.76 1.23,0.85c0.27,0.05 0.55,0.03 0.82,-0.04c0.27,-0.08 0.51,-0.22 0.72,-0.4c0.4,-0.37 0.6,-0.9 0.55,-1.42c-0.01,-0.27 -0.09,-0.53 -0.21,-0.76c-0.13,-0.23 -0.32,-0.43 -0.54,-0.58l-2.8,-1.99c-0.46,-0.32 -0.84,-0.74 -1.11,-1.22c-0.28,-0.49 -0.45,-1.02 -0.49,-1.58c-0.04,-0.56 0.06,-1.12 0.27,-1.64c0.21,-0.52 0.54,-0.99 0.96,-1.36c0.41,-0.38 0.9,-0.66 1.43,-0.83c0.53,-0.17 1.1,-0.22 1.65,-0.14c1.18,0.2 2.14,0.88 2.69,1.84c0.13,0.24 0.17,0.52 0.1,0.79c-0.07,0.26 -0.25,0.49 -0.48,0.63c-0.21,0.12 -0.46,0.16 -0.7,0.12c-0.15,-0.03 -0.29,-0.08 -0.42,-0.17c-0.12,-0.09 -0.22,-0.2 -0.3,-0.33c-0.13,-0.21 -0.3,-0.39 -0.5,-0.53c-0.2,-0.14 -0.44,-0.23 -0.68,-0.27c-0.25,-0.05 -0.5,-0.03 -0.75,0.04c-0.24,0.07 -0.46,0.2 -0.65,0.37c-0.18,0.17 -0.32,0.38 -0.41,0.61c-0.1,0.23 -0.14,0.48 -0.12,0.73c0.02,0.49 0.3,0.97 0.72,1.25l2.8,1.95c0.48,0.33 0.87,0.77 1.15,1.28c0.28,0.51 0.44,1.07 0.47,1.65c0.05,0.58 -0.04,1.16 -0.26,1.69c-0.22,0.54 -0.56,1.02 -0.99,1.4c-0.42,0.39 -0.93,0.69 -1.48,0.86c-0.55,0.17 -1.13,0.22 -1.7,0.14l-0.08,-0.02l0.01,0zm8.03,0.03c-0.24,-0.04 -0.46,-0.17 -0.61,-0.35c-0.16,-0.19 -0.25,-0.43 -0.25,-0.67l0,-18.05c0,-0.14 0.03,-0.27 0.08,-0.4c0.05,-0.13 0.12,-0.24 0.22,-0.34c0.1,-0.1 0.21,-0.17 0.34,-0.22c0.13,-0.06 0.26,-0.08 0.4,-0.08l0.2,0.01c0.5,0.1 0.84,0.51 0.84,1.03l0,5.1l1.97,0c0.53,0 1.06,0.1 1.55,0.3c0.49,0.21 0.93,0.5 1.31,0.88c0.38,0.38 0.67,0.82 0.88,1.31c0.2,0.49 0.3,1.02 0.3,1.55l0,8.9c0,0.15 -0.03,0.3 -0.09,0.44c-0.07,0.13 -0.16,0.26 -0.28,0.35c-0.11,0.1 -0.25,0.17 -0.39,0.21c-0.15,0.04 -0.3,0.05 -0.45,0.02c-0.5,-0.09 -0.86,-0.52 -0.86,-1.03l0,-8.9c0,-0.26 -0.05,-0.51 -0.15,-0.75c-0.1,-0.24 -0.24,-0.46 -0.43,-0.64c-0.18,-0.18 -0.4,-0.33 -0.64,-0.42c-0.24,-0.1 -0.49,-0.15 -0.75,-0.15l-1.97,0l0,10.87c0,0.15 -0.03,0.3 -0.1,0.44c-0.06,0.14 -0.15,0.26 -0.27,0.36c-0.12,0.1 -0.25,0.17 -0.4,0.2c-0.15,0.04 -0.3,0.05 -0.45,0.02l0,0.01zm14.28,-11.99c-0.28,-0.05 -0.57,-0.04 -0.85,0.03c-0.28,0.08 -0.54,0.21 -0.76,0.4c-0.22,0.18 -0.4,0.41 -0.52,0.68c-0.12,0.26 -0.18,0.54 -0.18,0.83l0,6.01c0,0.26 0.05,0.51 0.15,0.75c0.09,0.24 0.24,0.46 0.42,0.64c0.18,0.19 0.4,0.33 0.64,0.43c0.24,0.1 0.49,0.15 0.75,0.15c0.52,0 1.02,-0.2 1.39,-0.57c0.19,-0.18 0.33,-0.4 0.43,-0.64c0.1,-0.24 0.15,-0.5 0.15,-0.76l0,-6.02c0,-0.96 -0.68,-1.78 -1.63,-1.94l0.01,0.01zm-1.06,11.92c-0.93,-0.16 -1.78,-0.65 -2.39,-1.38c-0.61,-0.73 -0.94,-1.65 -0.94,-2.6l0,-6.01c0,-0.59 0.13,-1.17 0.38,-1.71c0.25,-0.53 0.61,-1.01 1.06,-1.39c0.45,-0.38 0.98,-0.65 1.55,-0.81c0.57,-0.15 1.17,-0.18 1.75,-0.08c0.94,0.16 1.79,0.65 2.4,1.38c0.62,0.73 0.95,1.66 0.95,2.61l0,6.01c0,0.53 -0.11,1.06 -0.31,1.55c-0.21,0.49 -0.51,0.94 -0.89,1.31c-0.46,0.46 -1.02,0.8 -1.64,1c-0.62,0.19 -1.28,0.23 -1.92,0.12z" fill="#333545" fill-rule="evenodd" id="svg_6"/>
   <path clip-rule="evenodd" d="m145.9,42.54c0.03,-0.13 0.04,-0.26 0.03,-0.39c-0.02,-0.13 -0.06,-0.26 -0.13,-0.37c-0.08,-0.12 -0.17,-0.23 -0.29,-0.31c-0.12,-0.08 -0.25,-0.14 -0.39,-0.17c-0.26,-0.05 -0.53,0 -0.75,0.14c-0.22,0.15 -0.38,0.37 -0.44,0.62c0,0.05 -1.12,4.56 -2,7.99l-0.02,0.07l-0.02,-0.07l-2,-7.98c-0.04,-0.19 -0.14,-0.37 -0.28,-0.51c-0.14,-0.14 -0.32,-0.23 -0.52,-0.26c-0.06,-0.01 -0.12,-0.02 -0.18,-0.02c-0.46,0 -0.86,0.32 -0.99,0.78c-0.01,0.05 -1.13,4.56 -2,7.99l-0.02,0.07l-0.02,-0.07c-0.85,-3.43 -2,-7.94 -2,-7.99c-0.05,-0.19 -0.15,-0.37 -0.29,-0.5c-0.15,-0.14 -0.33,-0.23 -0.52,-0.26c-0.17,-0.03 -0.34,-0.02 -0.5,0.04c-0.16,0.05 -0.3,0.14 -0.42,0.26c-0.12,0.13 -0.2,0.28 -0.24,0.44c-0.05,0.16 -0.05,0.34 -0.01,0.5l3.01,12.03c0.06,0.22 0.18,0.42 0.36,0.56c0.18,0.14 0.4,0.22 0.63,0.22c0.49,0 0.88,-0.32 0.98,-0.78l2,-7.99l0.03,-0.07l0.02,0.07c0.88,3.47 2,8 2,8c0.06,0.22 0.19,0.41 0.36,0.55c0.18,0.13 0.4,0.21 0.62,0.22c0.23,0.01 0.46,-0.07 0.64,-0.21c0.18,-0.14 0.3,-0.34 0.35,-0.57l3,-12.03z" fill="#333545" fill-rule="evenodd" id="svg_7"/>
  </g>
 </g>
</svg>