<?xml version="1.0"?>
<svg width="170" height="96" xmlns="http://www.w3.org/2000/svg" xmlns:svg="http://www.w3.org/2000/svg">
 <defs>
  <filter color-interpolation-filters="sRGB" filterUnits="userSpaceOnUse" height="176" id="filter0_d_8_278" width="250" x="0" y="0">
   <feFlood flood-opacity="0" result="BackgroundImageFix"/>
   <feColorMatrix in="SourceAlpha" result="hardAlpha" type="matrix" values="0 0 0 0 0 0 0 0 0 0 0 0 0 0 0 0 0 0 127 0"/>
   <feOffset dy="30"/>
   <feGaussianBlur stdDeviation="20"/>
   <feColorMatrix type="matrix" values="0 0 0 0 0.831373 0 0 0 0 0.85098 0 0 0 0 0.909804 0 0 0 0.2 0"/>
   <feBlend in2="BackgroundImageFix"/>
   <feBlend in="SourceGraphic" in2="effect1_dropShadow_8_278"/>
  </filter>
  <clipPath id="clip0_8_278">
   <rect fill="none" height="34" id="svg_1" transform="translate(-2 0)" width="98" x="38" y="31"/>
  </clipPath>
 </defs>
 <g class="layer">
  <title>Layer 1</title>
  <g id="svg_8">
   <g filter="url(#filter0_d_8_278)" id="svg_2">
    <rect fill="white" height="96" id="svg_3" rx="16" width="170" x="0" y="0"/>
   </g>
   <g clip-path="url(#clip0_8_278)" id="svg_4">
    <path clip-rule="evenodd" d="m122.38,46.84l-6.24,10.84l-5.32,0.02l11.56,-20.4l11.51,20.4l-5.4,0l-6.11,-10.86l0,0zm-16.8,6.14l5.96,0l-2.77,4.72l-7.76,0l0.02,-5.75l0,-14.52l4.57,0l-0.02,15.55l0,0zm-16.34,-15.55c5.68,0.02 10.28,4.55 10.26,10.14c-0.03,5.58 -4.62,10.11 -10.31,10.11c-5.66,-0.03 -10.26,-4.55 -10.26,-10.15c0.02,-5.57 4.62,-10.1 10.31,-10.1zm-0.03,15.53c3.05,0 5.49,-2.41 5.49,-5.39c0.03,-2.97 -2.44,-5.4 -5.46,-5.4c-3.03,-0.03 -5.5,2.41 -5.5,5.38c-0.02,2.98 2.45,5.41 5.47,5.41l0,0zm-18.75,-7c-0.06,-0.84 -0.28,-1.95 -0.6,-3.01c-0.65,-2.21 -1.79,-4.24 -3.34,-5.94c-0.81,-0.88 -1.72,-1.69 -3.08,-2.66c-1.04,-0.52 -2.07,-1.07 -3.07,-1.65c-0.66,-0.38 -1.45,-0.84 -2.49,-1.18c-1.23,-0.29 -2.5,-0.45 -3.77,-0.48c-1.23,-0.04 -2.47,0.07 -3.66,0.29c-1.25,0.21 -2.3,0.55 -3.68,0.88c-3.13,1.37 -5.56,3.42 -7.64,6.15c-7.28,10.24 -0.7,24.6 11.45,26.3c2,0.27 4,0.16 5.9,-0.28l1.34,-0.35c0.04,-0.02 0.1,-0.04 0.15,-0.04l1.53,-0.59c0.08,-0.04 0.15,-0.06 0.23,-0.11l0.64,-0.29c1.23,-0.61 2.38,-1.36 3.43,-2.24c-0.96,0.88 -2,1.66 -3.11,2.33l0.06,0.04c0.22,-0.07 0.41,-0.13 0.62,-0.17c0,0 0,0.33 -0.04,0.27c-0.34,0.25 0.19,0.02 0.87,-0.33c0.68,-0.36 1.34,-0.8 1.94,-1.3c0.87,-0.74 1.64,-1.53 2.72,-2.83c1.11,-1.95 2.5,-3.65 3.13,-5.93c0.22,-0.61 0.41,-1.32 0.54,-2.06c0.12,-0.73 0.21,-1.48 0.21,-2.26c-0.02,-0.78 -0.11,-1.57 -0.28,-2.56zm-15.75,17.23c3.72,-0.59 6.85,-2.66 9.41,-5.49c0.7,-1.03 1.25,-1.97 1.94,-3c0.85,-2.09 0.78,-3.96 1.06,-5.28c0.34,-2.39 -0.47,-4.32 -1.15,-6.37c-1.04,-2.39 -2.43,-4.17 -4.85,-5.55c-6.13,-3.82 -14.48,-2.75 -18.46,2.95c-0.02,0 -0.13,0.15 -0.34,0.44c0.28,-1.17 0.98,-1.86 1.68,-2.54c2.09,-1.71 4.52,-3.08 7.28,-3.75c3.13,-0.33 6.24,0 9.03,1.37c4.17,2.38 6.94,6.14 7.64,10.58l0,4.11c-0.87,6.73 -6.62,11.84 -13.24,12.53zm15.31,-15.3c-0.16,-9.85 -9.88,-16.49 -19.35,-15.15c-2.77,0.69 -5.8,2.07 -7.94,4c-1.05,0.69 -1.54,1.97 -2.58,3c-4.17,6.14 -3.45,14 1.74,18.78c0.67,0.66 1.38,1.28 2.13,1.84c-4.34,-2.62 -6.3,-6.58 -6.98,-11.4c0,-1.72 0.34,-3.42 0.7,-5.13c2.43,-7.53 10.07,-13 18.4,-11.62c1.38,0.34 2.76,0.7 4.17,1.03c1.74,0.69 3.47,1.72 4.85,3.08c1.39,1.36 2.43,3.08 3.47,4.78c0.7,1.36 1.04,3.08 1.39,4.44c0.06,0.78 0.06,1.58 0,2.35l0,0z" fill="black" fill-rule="evenodd" id="svg_5"/>
    <path clip-rule="evenodd" d="m61.37,48.04c0,4.23 -3.53,7.67 -7.89,7.67c-4.37,0 -7.9,-3.44 -7.9,-7.67c0,-4.23 3.53,-7.67 7.9,-7.67c4.36,0 7.89,3.44 7.89,7.67l0,0z" fill="white" fill-rule="evenodd" id="svg_6"/>
    <path clip-rule="evenodd" d="m61.42,46.74c-0.11,-0.59 -0.28,-1.05 -0.45,-1.7c-0.68,-1.42 -1.68,-2.53 -3,-3.48c-4.94,-3.29 -11.73,-0.12 -12.45,5.49c-0.28,2.23 0.51,4.36 1.91,6c-0.42,-0.44 -0.89,-0.9 -1.21,-1.43l-0.04,0.05c0.04,0.12 0.21,0.2 0.25,0.33c0,0 -0.17,0 -0.13,-0.02c-0.12,-0.15 -0.02,0.08 0.17,0.4c0.17,0.31 0.39,0.61 0.64,0.88c0.36,0.4 0.75,0.75 1.39,1.23c0.93,0.49 1.76,1.12 2.85,1.41c0.3,0.08 0.64,0.17 0.98,0.23c0.36,0.06 0.7,0.08 1.08,0.08c0.36,0 0.75,-0.04 1.22,-0.12c0.48,-0.06 0.96,-0.16 1.42,-0.3c1.04,-0.31 2,-0.86 2.81,-1.59c0.41,-0.38 0.98,-0.86 1.43,-1.49c0.36,-0.71 0.4,-1.07 0.57,-1.38c0.17,-0.31 0.39,-0.67 0.54,-1.15c0.12,-0.58 0.19,-1.16 0.21,-1.74c-0.02,-0.59 -0.06,-1.16 -0.19,-1.7l0,0zm-5.07,-3.9c0.72,0.42 0.83,0.48 0.45,0.21c0.55,0.13 0.89,0.44 1.23,0.76c0.83,0.94 1.51,2.05 1.85,3.33c0.19,1.44 0.04,2.89 -0.57,4.17c-1.11,1.95 -2.88,3.25 -4.98,3.6c-0.24,0 -0.49,0 -0.73,0.02c0.6,-0.1 0.98,-0.48 2.07,-0.88c1.17,-0.42 2.49,-2.36 3.13,-3.5c1.87,-3.08 -0.34,-5.93 -2.45,-7.71zm-4,12.11c-3.24,-0.33 -5.73,-2.99 -6.07,-6.07c0.3,1.72 1.32,3.04 2.7,4.21c0.49,0.31 1.22,0.75 1.71,1.07c0.83,0.31 1.32,0.65 2.13,0.79l-0.47,0l0,0zm8.7,-5.59c-0.14,0.65 -0.29,1.28 -0.44,1.93c-0.32,0.79 -0.79,1.61 -1.43,2.26c-0.64,0.65 -1.45,1.15 -2.26,1.64c-0.63,0.33 -1.44,0.5 -2.1,0.66c-0.39,0.05 -0.83,-0.12 -1.22,-0.14c4.73,-0.13 7.96,-4.55 7.26,-8.93c-0.34,-1.28 -1.02,-2.39 -1.85,-3.5c-0.34,-0.48 -1,-0.77 -1.49,-1.26c-2.96,-1.86 -6.87,-1.48 -9.11,0.97c-0.31,0.32 -0.61,0.66 -0.87,1.02c1.19,-1.76 3.11,-2.99 5.4,-3.35c0.81,-0.02 1.64,0.13 2.45,0.27c3.58,1.09 6.24,4.57 5.66,8.43l0,0z" fill="#D7DF23" fill-rule="evenodd" id="svg_7"/>
   </g>
  </g>
 </g>
</svg>