<?xml version="1.0"?>
<svg width="170" height="96" xmlns="http://www.w3.org/2000/svg" xmlns:svg="http://www.w3.org/2000/svg">
 <defs>
  <filter color-interpolation-filters="sRGB" filterUnits="userSpaceOnUse" height="176" id="filter0_d_8_268" width="250" x="0" y="0">
   <feFlood flood-opacity="0" result="BackgroundImageFix"/>
   <feColorMatrix in="SourceAlpha" result="hardAlpha" type="matrix" values="0 0 0 0 0 0 0 0 0 0 0 0 0 0 0 0 0 0 127 0"/>
   <feOffset dy="30"/>
   <feGaussianBlur stdDeviation="20"/>
   <feColorMatrix type="matrix" values="0 0 0 0 0.831373 0 0 0 0 0.85098 0 0 0 0 0.909804 0 0 0 0.2 0"/>
   <feBlend in2="BackgroundImageFix"/>
   <feBlend in="SourceGraphic" in2="effect1_dropShadow_8_268"/>
  </filter>
  <clipPath id="clip0_8_268">
   <rect fill="white" height="16" id="svg_1" transform="translate(0 -10)" width="16" x="129" y="50"/>
  </clipPath>
 </defs>
 <g class="layer">
  <title>Layer 1</title>
  <g id="svg_8">
   <g filter="url(#filter0_d_8_268)" id="svg_2">
    <rect fill="white" height="96" id="svg_3" rx="16" width="170" x="0" y="0"/>
   </g>
   <path d="m29.47,54l1.67,0l0,-9.94l3.83,0l0,-1.58l-9.33,0l0,1.58l3.83,0l0,9.94zm10.51,-10.09l1.6,0l0,-1.6l-1.6,0l0,1.6zm-3.22,0l1.6,0l0,-1.6l-1.6,0l0,1.6zm1.95,10.32c0.63,0 1.18,-0.11 1.66,-0.33c0.48,-0.23 0.88,-0.54 1.2,-0.93l0,1.03l1.49,0l0,-8.64l-1.69,0l0,4.5c0,0.68 -0.1,1.23 -0.3,1.64c-0.2,0.4 -0.46,0.69 -0.8,0.88c-0.33,0.18 -0.69,0.27 -1.09,0.27c-0.46,0 -0.84,-0.1 -1.12,-0.28c-0.29,-0.19 -0.51,-0.43 -0.67,-0.74c-0.15,-0.3 -0.26,-0.63 -0.32,-0.98c-0.05,-0.36 -0.08,-0.71 -0.08,-1.04l0,-4.25l-1.69,0l0,4.8c0,0.27 0.02,0.58 0.07,0.93c0.05,0.35 0.14,0.71 0.27,1.08c0.13,0.37 0.33,0.71 0.58,1.02c0.25,0.31 0.58,0.56 0.99,0.75c0.4,0.2 0.9,0.29 1.5,0.29zm6.58,-0.23l1.68,0l0,-5.4c0,-0.59 0.16,-1.06 0.48,-1.42c0.33,-0.37 0.75,-0.55 1.28,-0.55c0.54,0 0.96,0.18 1.27,0.55c0.32,0.35 0.48,0.84 0.48,1.47l0,5.35l1.67,0l0.01,-5.4c0,-0.65 0.17,-1.14 0.52,-1.47c0.35,-0.33 0.76,-0.5 1.24,-0.5c0.52,0 0.94,0.18 1.26,0.53c0.32,0.35 0.48,0.84 0.48,1.46l-0.01,5.38l1.67,0l0.01,-5.78c0,-0.93 -0.26,-1.68 -0.77,-2.24c-0.52,-0.56 -1.24,-0.84 -2.16,-0.84c-0.57,0 -1.08,0.13 -1.54,0.38c-0.46,0.25 -0.82,0.59 -1.09,1.02c-0.23,-0.43 -0.56,-0.77 -0.98,-1.02c-0.42,-0.25 -0.93,-0.38 -1.53,-0.38c-0.52,0 -0.99,0.11 -1.42,0.32c-0.43,0.2 -0.78,0.48 -1.06,0.83l0,-0.93l-1.49,0l0,8.64zm18.65,-10.09l1.6,0l0,-1.6l-1.6,0l0,1.6zm-3.23,0l1.6,0l0,-1.6l-1.6,0l0,1.6zm1.96,10.32c0.62,0 1.17,-0.11 1.65,-0.33c0.49,-0.23 0.89,-0.54 1.2,-0.93l0,1.03l1.49,0l0,-8.64l-1.69,0l0,4.5c0,0.68 -0.1,1.23 -0.29,1.64c-0.2,0.4 -0.47,0.69 -0.81,0.88c-0.33,0.18 -0.69,0.27 -1.09,0.27c-0.46,0 -0.83,-0.1 -1.12,-0.28c-0.29,-0.19 -0.51,-0.43 -0.67,-0.74c-0.15,-0.3 -0.26,-0.63 -0.31,-0.98c-0.06,-0.36 -0.09,-0.71 -0.09,-1.04l0,-4.25l-1.69,0l0,4.8c0,0.27 0.02,0.58 0.07,0.93c0.05,0.35 0.14,0.71 0.27,1.08c0.14,0.37 0.33,0.71 0.58,1.02c0.25,0.31 0.59,0.56 0.99,0.75c0.41,0.2 0.91,0.29 1.51,0.29zm6.58,-0.23l1.69,0l0,-4.5c0,-0.68 0.1,-1.22 0.3,-1.63c0.2,-0.41 0.47,-0.7 0.8,-0.89c0.33,-0.18 0.69,-0.27 1.09,-0.27c0.46,0 0.84,0.1 1.12,0.28c0.29,0.19 0.51,0.43 0.67,0.74c0.15,0.3 0.25,0.63 0.31,0.99c0.06,0.35 0.09,0.7 0.09,1.03l0,4.25l1.69,0l0,-4.8c0,-0.27 -0.02,-0.58 -0.07,-0.93c-0.05,-0.35 -0.14,-0.71 -0.27,-1.08c-0.14,-0.37 -0.33,-0.7 -0.59,-1.01c-0.25,-0.32 -0.57,-0.57 -0.98,-0.76c-0.41,-0.2 -0.91,-0.29 -1.5,-0.29c-0.63,0 -1.18,0.11 -1.67,0.33c-0.48,0.23 -0.87,0.54 -1.19,0.93l0,-1.03l-1.49,0l0,8.64zm14.38,-10.09l1.59,0l0,-1.6l-1.59,0l0,1.6zm-3.23,0l1.6,0l0,-1.6l-1.6,0l0,1.6zm1.95,10.32c0.63,0 1.18,-0.11 1.66,-0.33c0.48,-0.23 0.88,-0.54 1.2,-0.93l0,1.03l1.49,0l0,-8.64l-1.69,0l0,4.5c0,0.68 -0.1,1.23 -0.3,1.64c-0.19,0.4 -0.46,0.69 -0.8,0.88c-0.33,0.18 -0.69,0.27 -1.09,0.27c-0.46,0 -0.84,-0.1 -1.12,-0.28c-0.29,-0.19 -0.51,-0.43 -0.67,-0.74c-0.15,-0.3 -0.26,-0.63 -0.32,-0.98c-0.05,-0.36 -0.08,-0.71 -0.08,-1.04l0,-4.25l-1.69,0l0,4.8c0,0.27 0.02,0.58 0.07,0.93c0.05,0.35 0.14,0.71 0.27,1.08c0.13,0.37 0.33,0.71 0.58,1.02c0.25,0.31 0.58,0.56 0.99,0.75c0.4,0.2 0.9,0.29 1.5,0.29zm14.5,0.01c1.12,0 2.08,-0.24 2.85,-0.71c0.79,-0.48 1.39,-1.14 1.8,-1.98c0.41,-0.84 0.61,-1.79 0.61,-2.85c0,-0.05 0,-0.15 -0.01,-0.3c0,-0.15 -0.01,-0.28 -0.02,-0.38l-4.02,0l0,1.34l2.24,0c-0.11,1.07 -0.46,1.89 -1.02,2.46c-0.57,0.56 -1.34,0.84 -2.33,0.83c-1.22,-0.01 -2.14,-0.42 -2.76,-1.23c-0.61,-0.8 -0.92,-1.86 -0.91,-3.18c0,-0.88 0.14,-1.65 0.41,-2.31c0.27,-0.67 0.68,-1.19 1.22,-1.55c0.55,-0.37 1.22,-0.55 2.04,-0.55c0.8,0.01 1.46,0.22 1.98,0.63c0.52,0.41 0.9,0.96 1.13,1.64l1.69,-0.3c-0.29,-1.11 -0.84,-1.98 -1.66,-2.61c-0.8,-0.63 -1.88,-0.94 -3.24,-0.94c-1.04,0 -1.97,0.24 -2.78,0.73c-0.8,0.48 -1.43,1.16 -1.89,2.06c-0.45,0.89 -0.68,1.96 -0.68,3.2c0,1.26 0.24,2.34 0.7,3.23c0.46,0.9 1.1,1.58 1.9,2.06c0.81,0.47 1.73,0.71 2.75,0.71zm11.43,-10.33l1.6,0l0,-1.6l-1.6,0l0,1.6zm-3.22,0l1.6,0l0,-1.6l-1.6,0l0,1.6zm2.4,10.33c0.86,0 1.6,-0.19 2.24,-0.58c0.63,-0.39 1.12,-0.92 1.47,-1.6c0.35,-0.69 0.53,-1.49 0.53,-2.39c0,-0.89 -0.17,-1.68 -0.52,-2.36c-0.35,-0.69 -0.84,-1.22 -1.47,-1.61c-0.64,-0.39 -1.39,-0.58 -2.25,-0.58c-0.85,0 -1.59,0.19 -2.23,0.58c-0.63,0.38 -1.12,0.91 -1.48,1.6c-0.35,0.68 -0.52,1.47 -0.52,2.37c0,0.89 0.17,1.68 0.52,2.37c0.34,0.69 0.83,1.23 1.46,1.62c0.63,0.39 1.38,0.58 2.25,0.58zm0,-1.58c-0.81,0 -1.42,-0.27 -1.83,-0.8c-0.42,-0.55 -0.63,-1.28 -0.63,-2.19c0,-0.88 0.2,-1.59 0.6,-2.14c0.4,-0.56 1.02,-0.83 1.86,-0.83c0.81,0 1.43,0.27 1.84,0.8c0.41,0.54 0.62,1.27 0.62,2.17c0,0.89 -0.2,1.61 -0.61,2.16c-0.41,0.56 -1.03,0.83 -1.85,0.83zm6,1.34l1.68,0l0,-4.36c0,-0.51 0.08,-0.98 0.24,-1.41c0.16,-0.43 0.45,-0.78 0.85,-1.04c0.29,-0.18 0.61,-0.29 0.95,-0.33c0.35,-0.03 0.66,-0.01 0.94,0.07l0,-1.57c-0.39,-0.07 -0.8,-0.07 -1.24,0.01c-0.43,0.08 -0.81,0.24 -1.14,0.48c-0.32,0.21 -0.58,0.51 -0.8,0.89l0,-1.38l-1.48,0l0,8.64z" fill="#F84646" id="svg_4"/>
   <g clip-path="url(#clip0_8_268)" id="svg_5">
    <path d="m131.5,48l11,0" id="svg_6" stroke="#F84646" stroke-linecap="round" stroke-linejoin="round" stroke-width="2"/>
    <path d="m138,43.5l4.5,4.5l-4.5,4.5" id="svg_7" stroke="#F84646" stroke-linecap="round" stroke-linejoin="round" stroke-width="2"/>
   </g>
  </g>
 </g>
</svg>